<svg xmlns="http://www.w3.org/2000/svg" width="900" height="352" viewBox="0 0 900 352" shape-rendering="crispEdges" font-family="Consolas, 'Courier New', monospace">
<defs><pattern id="l0" width="4" height="4" patternUnits="userSpaceOnUse"><g fill="#c9d1d9" opacity="0.45"><rect x="0" y="0" width="1" height="1"/></g></pattern><pattern id="l1" width="4" height="4" patternUnits="userSpaceOnUse"><g fill="#c9d1d9" opacity="1"><rect x="0" y="0" width="2" height="2"/></g></pattern><pattern id="l2" width="4" height="4" patternUnits="userSpaceOnUse"><g fill="#c9d1d9" opacity="1"><rect x="0" y="0" width="2" height="2"/><rect x="2" y="2" width="2" height="2"/></g></pattern><pattern id="l3" width="4" height="4" patternUnits="userSpaceOnUse"><g fill="#c9d1d9" opacity="1"><rect x="0" y="0" width="2" height="2"/><rect x="2" y="2" width="2" height="2"/><rect x="2" y="0" width="2" height="2"/></g></pattern></defs>
<rect width="900" height="352" rx="15" fill="#161b22"/>
<text x="28" y="40" font-size="15" font-weight="bold" fill="#ffa657">Contribution Graph</text><text x="872" y="40" text-anchor="end" font-size="10" fill="#c9d1d9" opacity="0.6">daily &#183; September 2026</text>
<rect x="28" y="58" width="8" height="36" fill="url(#l1)"/><text x="44" y="80" font-size="24" fill="#c9d1d9">80</text><text x="44" y="94" font-size="11" fill="#c9d1d9" opacity="0.8">This Month</text>
<rect x="197" y="58" width="8" height="36" fill="url(#l1)"/><text x="213" y="80" font-size="24" fill="#c9d1d9">39</text><text x="213" y="94" font-size="11" fill="#c9d1d9" opacity="0.8">Best Day (Sep 27)</text>
<rect x="366" y="58" width="8" height="36" fill="url(#l1)"/><text x="382" y="80" font-size="24" fill="#c9d1d9">2.9</text><text x="382" y="94" font-size="11" fill="#c9d1d9" opacity="0.8">Daily Average</text>
<rect x="534" y="58" width="8" height="36" fill="url(#l1)"/><text x="550" y="80" font-size="24" fill="#c9d1d9">12</text><text x="550" y="94" font-size="11" fill="#c9d1d9" opacity="0.8">Active Days</text>
<rect x="703" y="58" width="8" height="36" fill="url(#l1)"/><text x="719" y="80" font-size="24" fill="#c9d1d9">3d</text><text x="719" y="94" font-size="11" fill="#c9d1d9" opacity="0.8">Current Streak</text>
<rect x="58" y="300" width="814" height="1" fill="url(#l0)"/><text x="50" y="304" text-anchor="end" font-size="10" fill="#c9d1d9" opacity="0.6">0</text>
<rect x="58" y="215" width="814" height="1" fill="url(#l0)"/><text x="50" y="219" text-anchor="end" font-size="10" fill="#c9d1d9" opacity="0.6">20</text>
<rect x="58" y="130" width="814" height="1" fill="url(#l0)"/><text x="50" y="134" text-anchor="end" font-size="10" fill="#c9d1d9" opacity="0.6">40</text>
<rect x="60" y="130" width="20" height="170" fill="transparent"><title>Sep 01: 0 contributions</title></rect>
<rect x="60" y="298" width="20" height="2" fill="url(#l1)"/>
<rect x="88" y="130" width="20" height="170" fill="transparent"><title>Sep 02: 0 contributions</title></rect>
<rect x="88" y="298" width="20" height="2" fill="url(#l1)"/>
<rect x="116" y="130" width="20" height="170" fill="transparent"><title>Sep 03: 0 contributions</title></rect>
<rect x="116" y="298" width="20" height="2" fill="url(#l1)"/>
<rect x="144" y="130" width="20" height="170" fill="transparent"><title>Sep 04: 0 contributions</title></rect>
<rect x="144" y="298" width="20" height="2" fill="url(#l1)"/>
<rect x="172" y="130" width="20" height="170" fill="transparent"><title>Sep 05: 0 contributions</title></rect>
<rect x="172" y="298" width="20" height="2" fill="url(#l1)"/>
<rect x="196" y="130" width="20" height="170" fill="transparent"><title>Sep 06: 0 contributions</title></rect>
<rect x="196" y="298" width="20" height="2" fill="url(#l1)"/>
<rect x="224" y="130" width="20" height="170" fill="transparent"><title>Sep 07: 0 contributions</title></rect>
<rect x="224" y="298" width="20" height="2" fill="url(#l1)"/>
<rect x="252" y="130" width="20" height="170" fill="transparent"><title>Sep 08: 0 contributions</title></rect>
<rect x="252" y="298" width="20" height="2" fill="url(#l1)"/>
<rect x="280" y="130" width="20" height="170" fill="transparent"><title>Sep 09: 0 contributions</title></rect>
<rect x="280" y="298" width="20" height="2" fill="url(#l1)"/>
<rect x="304" y="130" width="20" height="170" fill="transparent"><title>Sep 10: 0 contributions</title></rect>
<rect x="304" y="298" width="20" height="2" fill="url(#l1)"/>
<rect x="332" y="130" width="20" height="170" fill="transparent"><title>Sep 11: 0 contributions</title></rect>
<rect x="332" y="298" width="20" height="2" fill="url(#l1)"/>
<rect x="360" y="130" width="20" height="170" fill="transparent"><title>Sep 12: 0 contributions</title></rect>
<rect x="360" y="298" width="20" height="2" fill="url(#l1)"/>
<rect x="388" y="130" width="20" height="170" fill="transparent"><title>Sep 13: 2 contributions</title></rect>
<rect x="388" y="292" width="20" height="8" fill="url(#l1)"/>
<rect x="416" y="130" width="20" height="170" fill="transparent"><title>Sep 14: 2 contributions</title></rect>
<rect x="416" y="292" width="20" height="8" fill="url(#l1)"/>
<rect x="440" y="130" width="20" height="170" fill="transparent"><title>Sep 15: 0 contributions</title></rect>
<rect x="440" y="298" width="20" height="2" fill="url(#l1)"/>
<rect x="468" y="130" width="20" height="170" fill="transparent"><title>Sep 16: 5 contributions</title></rect>
<rect x="468" y="279" width="20" height="21" fill="url(#l1)"/>
<rect x="496" y="130" width="20" height="170" fill="transparent"><title>Sep 17: 4 contributions</title></rect>
<rect x="496" y="283" width="20" height="17" fill="url(#l1)"/>
<rect x="524" y="130" width="20" height="170" fill="transparent"><title>Sep 18: 0 contributions</title></rect>
<rect x="524" y="298" width="20" height="2" fill="url(#l1)"/>
<rect x="548" y="130" width="20" height="170" fill="transparent"><title>Sep 19: 1 contribution</title></rect>
<rect x="548" y="296" width="20" height="4" fill="url(#l1)"/>
<rect x="576" y="130" width="20" height="170" fill="transparent"><title>Sep 20: 2 contributions</title></rect>
<rect x="576" y="292" width="20" height="8" fill="url(#l1)"/>
<rect x="604" y="130" width="20" height="170" fill="transparent"><title>Sep 21: 4 contributions</title></rect>
<rect x="604" y="283" width="20" height="17" fill="url(#l1)"/>
<rect x="632" y="130" width="20" height="170" fill="transparent"><title>Sep 22: 1 contribution</title></rect>
<rect x="632" y="296" width="20" height="4" fill="url(#l1)"/>
<rect x="660" y="130" width="20" height="170" fill="transparent"><title>Sep 23: 1 contribution</title></rect>
<rect x="660" y="296" width="20" height="4" fill="url(#l1)"/>
<rect x="684" y="130" width="20" height="170" fill="transparent"><title>Sep 24: 0 contributions</title></rect>
<rect x="684" y="298" width="20" height="2" fill="url(#l1)"/>
<rect x="712" y="130" width="20" height="170" fill="transparent"><title>Sep 25: 0 contributions</title></rect>
<rect x="712" y="298" width="20" height="2" fill="url(#l1)"/>
<rect x="740" y="130" width="20" height="170" fill="transparent"><title>Sep 26: 8 contributions</title></rect>
<rect x="740" y="266" width="20" height="34" fill="url(#l1)"/>
<rect x="768" y="130" width="20" height="170" fill="transparent"><title>Sep 27: 39 contributions</title></rect>
<rect x="768" y="134" width="20" height="166" fill="#c9d1d9"/>
<rect x="796" y="130" width="20" height="170" fill="transparent"><title>Sep 28: 11 contributions</title></rect>
<rect x="796" y="253" width="20" height="47" fill="url(#l2)"/>
<rect x="794" y="251" width="24" height="51" fill="none" stroke="#ffa657" stroke-width="2"/>
<rect x="820" y="298" width="20" height="2" fill="url(#l0)"/>
<rect x="848" y="298" width="20" height="2" fill="url(#l0)"/>
<rect x="58" y="300" width="814" height="2" fill="#c9d1d9" opacity="0.5"/>
<text x="72" y="316" text-anchor="middle" font-size="10" fill="#c9d1d9" opacity="0.75">1</text>
<text x="180" y="316" text-anchor="middle" font-size="10" fill="#c9d1d9" opacity="0.75">5</text>
<text x="316" y="316" text-anchor="middle" font-size="10" fill="#c9d1d9" opacity="0.75">10</text>
<text x="451" y="316" text-anchor="middle" font-size="10" fill="#c9d1d9" opacity="0.75">15</text>
<text x="587" y="316" text-anchor="middle" font-size="10" fill="#c9d1d9" opacity="0.75">20</text>
<text x="723" y="316" text-anchor="middle" font-size="10" fill="#c9d1d9" opacity="0.75">25</text>
<text x="858" y="316" text-anchor="middle" font-size="10" fill="#c9d1d9" opacity="0.75">30</text>
<rect x="822" y="324" width="10" height="10" fill="none" stroke="#ffa657" stroke-width="2"/><text x="838" y="332" font-size="10" fill="#c9d1d9" opacity="0.75">today</text>
</svg>
